<svg width="21" height="21" viewBox="0 0 21 21" fill="none" xmlns="http://www.w3.org/2000/svg">
<path d="M10.5 0C4.70156 0 0 4.70156 0 10.5C0 16.2984 4.70156 21 10.5 21C16.2984 21 21 16.2984 21 10.5C21 4.70156 16.2984 0 10.5 0ZM15.0352 7.07109L10.0992 13.9148C10.0302 14.0111 9.93929 14.0896 9.83392 14.1437C9.72856 14.1978 9.61181 14.2261 9.49336 14.2261C9.37491 14.2261 9.25816 14.1978 9.1528 14.1437C9.04743 14.0896 8.95649 14.0111 8.8875 13.9148L5.96484 9.86484C5.87578 9.74062 5.96484 9.56719 6.11719 9.56719H7.21641C7.45547 9.56719 7.68281 9.68203 7.82344 9.87891L9.49219 12.1945L13.1766 7.08516C13.3172 6.89062 13.5422 6.77344 13.7836 6.77344H14.8828C15.0352 6.77344 15.1242 6.94688 15.0352 7.07109Z" fill="#70EDB9"/>
</svg>
